<svg width="120" height="120" viewBox="0 0 120 120" fill="#171717" xmlns="http://www.w3.org/2000/svg">
<path fill-rule="evenodd" clip-rule="evenodd" d="M42.2613 0.341461C39.986 1.1573 38.4721 2.72261 37.8148 4.9389C37.3538 6.49436 37.3851 7.74496 37.9249 9.31098C38.1689 10.0189 38.3499 10.6097 38.3269 10.6235C38.3042 10.6373 37.7148 10.9548 37.0175 11.3293C35.2683 12.2681 32.6122 14.8274 31.5271 16.62L30.6225 18.114L28.9232 18.0279C27.3101 17.9463 27.1841 17.9775 26.4376 18.6456C25.2841 19.6779 25.3654 20.6394 26.8083 23.032C29.0576 26.7622 30.841 31.6483 31.6215 36.2202C31.8737 37.6983 32.0802 39.2664 32.0802 39.7049V40.5025H30.8349C27.8618 40.5025 25.4546 41.9681 24.1187 44.592C23.3874 46.0283 23.3008 46.3937 23.3146 47.9836C23.334 50.2271 23.9566 51.7382 25.478 53.2348C26.8422 54.5769 28.328 55.2495 30.3448 55.4382L31.9001 55.5836L31.7388 57.4817C31.0377 65.7318 28.1147 76.4103 24.3086 84.6266C23.3584 86.678 23.0966 86.9231 21.8478 86.9308C20.7027 86.9381 17.5303 88.1667 15.8923 89.2376C12.7703 91.2785 10.1526 94.8929 9.32316 98.3075C8.95201 99.8356 8.8258 99.9828 7.76622 100.125C5.56837 100.42 2.64931 102.526 1.34386 104.757C0.233459 106.655 0 108.149 0 113.354C0 116.535 0.0922598 118.304 0.279824 118.716C0.900353 120.08 -1.88781 119.999 44.4908 119.999C90.8694 119.999 88.0812 120.08 88.7017 118.716C89.1422 117.748 89.0785 108.98 88.6181 107.209C87.7035 103.691 84.5814 100.689 81.2893 100.162C80.1511 99.9798 80.0317 99.844 79.6584 98.3075C78.829 94.8929 76.2113 91.2785 73.0892 89.2376C71.4513 88.1667 68.2788 86.9381 67.1338 86.9308C65.885 86.9231 65.6232 86.678 64.673 84.6266C60.8669 76.4103 57.9439 65.7318 57.2428 57.4817L57.0814 55.5836L58.6367 55.4382C60.6536 55.2495 62.1393 54.5769 63.5036 53.2348C65.0191 51.7441 65.6476 50.2252 65.667 48.0066C65.6794 46.5733 65.5675 46.0025 65.0624 44.9233C63.811 42.2502 61.59 40.7421 58.6236 40.5515L56.9014 40.4408V39.6742C56.9014 38.126 57.8476 33.4287 58.6798 30.8461C59.6071 27.9685 61.0451 24.7903 62.4274 22.563C63.6017 20.6708 63.6328 19.62 62.544 18.6456C61.7975 17.9775 61.6715 17.9463 60.0583 18.0279L58.359 18.114L57.4545 16.6237C56.3223 14.7583 53.6931 12.2296 51.9261 11.3064C51.1859 10.9197 50.6263 10.4978 50.6827 10.3688C51.9765 7.40892 51.6032 4.43378 49.6601 2.21725C47.9922 0.314963 44.6788 -0.525263 42.2613 0.341461ZM45.6276 4.95766C47.208 5.77607 47.1607 8.29886 45.5511 9.03333C44.3496 9.58159 43.0401 9.18622 42.4828 8.10704C41.3837 5.97845 43.5022 3.8569 45.6276 4.95766ZM46.9495 14.3228C49.4679 14.9977 52.0404 16.7705 53.1798 18.6172C53.4531 19.0597 53.6381 19.4488 53.5913 19.4816C53.1393 19.7987 50.2945 21.5077 50.2189 21.5077C50.1643 21.5077 49.5646 21.1578 48.8858 20.7301C47.2249 19.6835 45.3827 18.9282 44.4908 18.9282C43.5989 18.9282 41.7567 19.6835 40.0958 20.7301C39.417 21.1578 38.8173 21.5077 38.7627 21.5077C38.6871 21.5077 35.8422 19.7987 35.3903 19.4816C35.1779 19.3327 36.4265 17.6811 37.4406 16.7694C40.0492 14.4243 43.7623 13.469 46.9495 14.3228ZM34.4986 24.4247C35.2341 24.8682 36.2743 25.6068 36.8103 26.0662C38.1693 27.2312 39.2142 27.2638 40.51 26.1814C40.9608 25.805 42.0361 25.0651 42.8997 24.5373L44.4695 23.5774L45.6169 24.2026C46.2477 24.5466 47.326 25.2898 48.013 25.8542C49.8821 27.3895 50.5795 27.3846 52.4802 25.8228C53.8097 24.7303 56.0853 23.4264 56.2954 23.6368C56.3637 23.705 55.9919 24.7547 55.4692 25.9687C53.8641 29.6975 52.2181 36.6252 52.2181 39.6531V40.5025H44.5416H36.8651L36.5803 37.8163C36.134 33.6083 34.6717 28.461 32.63 23.9114C32.3987 23.3962 33.1229 23.595 34.4986 24.4247ZM60.1614 45.9957C61.5233 47.3026 61.2849 49.3576 59.6558 50.3523C58.9149 50.8047 58.4541 50.819 44.4908 50.819C30.62 50.819 30.0622 50.8021 29.3403 50.361C27.3726 49.1596 27.5358 46.2896 29.6215 45.4137C29.8791 45.3053 36.6951 45.2378 44.7683 45.2634L59.4467 45.3098L60.1614 45.9957ZM52.7431 59.2041C53.6716 67.6514 56.544 78.2402 59.8389 85.3615L60.4037 86.5824L52.4474 86.644C48.0711 86.678 40.9149 86.678 36.5443 86.644L28.5977 86.5824L29.3763 84.8145C31.746 79.4335 33.9039 72.5028 35.1042 66.4151C35.8134 62.8195 36.5293 57.7425 36.5293 56.3099V55.5107H44.4332H52.3373L52.7431 59.2041ZM66.7629 91.6254C70.502 92.3242 74.2392 95.7264 75.0613 99.1799L75.2133 99.8177L64.6711 99.8834L54.1287 99.9491L53.5369 100.506C52.7932 101.206 52.5567 102.235 52.9316 103.141C53.5098 104.539 53.3306 104.522 67.1342 104.523C75.6231 104.524 80.0378 104.609 80.6688 104.784C81.9115 105.129 83.6923 106.912 84.0365 108.157C84.1791 108.673 84.2962 110.493 84.2969 112.202L84.2983 115.309H44.4908H4.68324V112.018C4.68324 108.346 4.89164 107.525 6.1587 106.202C7.72945 104.562 6.90122 104.652 21.6942 104.522C34.3897 104.411 35.1007 104.382 35.5638 103.962C36.2019 103.383 36.4274 102.125 36.0549 101.224C35.4802 99.8349 35.4538 99.8318 24.1049 99.8318H13.7647L13.9184 99.1869C14.7194 95.8246 18.4571 92.3422 22.0112 91.6472C23.5227 91.3515 65.1891 91.3313 66.7629 91.6254ZM42.9453 100.629C42.0693 101.506 41.9391 102.262 42.4828 103.315C43.582 105.444 46.8324 104.497 46.8324 102.048C46.8324 101.136 45.4541 99.8318 44.4908 99.8318C43.9508 99.8318 43.519 100.055 42.9453 100.629Z"></path>
</svg>