<svg width="120" height="120" viewBox="0 0 120 120" fill="#171717" xmlns="http://www.w3.org/2000/svg">
<path fill-rule="evenodd" clip-rule="evenodd" d="M34.518 0.209433C34.245 0.31937 33.7951 0.696297 33.5186 1.04674C33.0304 1.6651 33.0159 1.88802 33.0159 8.68443C33.0159 15.4834 33.0027 15.685 32.5545 15.685C31.5346 15.685 28.4511 16.8688 26.802 17.8934C24.8563 19.1022 22.498 21.5014 21.3004 23.4903C20.3666 25.0411 19.4521 27.637 19.2405 29.3369L19.0871 30.5699L13.852 35.844C10.9726 38.7448 8.35579 41.5401 8.03669 42.0558C6.75371 44.1296 6.64154 46.6345 7.73193 48.8611C8.6034 50.641 15.5662 57.4332 17.3569 58.2503C19.8707 59.3975 22.8646 59.3968 25.3937 58.2482C26.129 57.9142 27.4978 56.8495 28.9463 55.4848C31.4312 53.1438 33.3371 51.8444 35.1992 51.2221C36.5064 50.7852 39.3555 50.7509 40.4826 51.1583L41.2475 51.4349L40.2077 52.9801C38.7867 55.0914 35.7862 58.2032 32.5455 60.9261C28.092 64.6679 25.7027 67.4738 23.1635 71.9428C21.1078 75.5611 19.6334 79.5092 18.9178 83.3115C18.7723 84.0851 18.6067 84.9381 18.5501 85.2069C18.4708 85.582 18.1494 85.7622 17.1709 85.9805C14.7246 86.5262 12.6671 88.4279 11.9621 90.7947C11.7065 91.6527 11.6171 93.2354 11.6171 96.9074V101.862L9.8142 102.652C6.14302 104.26 3.32896 106.958 1.62459 110.503C0.430727 112.986 0.0436697 114.505 0.00534011 116.855C-0.0207617 118.441 0.0281498 118.627 0.629196 119.227L1.28103 119.879L44.4202 119.94L87.5594 120L88.3293 119.312C89.0752 118.647 89.0984 118.57 89.0712 116.879C89.0331 114.505 88.6491 112.993 87.4519 110.503C85.7475 106.958 82.9335 104.26 79.2623 102.652L77.4594 101.862V96.9074C77.4594 91.3967 77.2757 90.3229 76.0485 88.6593C75.1352 87.4214 73.5418 86.3637 72.0545 86.0081C70.9175 85.7362 70.8945 85.7128 70.7101 84.6387C70.4065 82.8713 70.5213 79.7094 70.9662 77.5767C71.194 76.4853 71.4315 75.5095 71.4943 75.4085C71.5571 75.3072 74.5174 75.2245 78.0729 75.2245C85.3664 75.2245 85.6107 75.1766 86.2315 73.6303C86.7956 72.2245 88.4294 66.0094 88.955 63.2697C89.822 58.7489 90.0191 56.4489 89.9986 51.0805C89.9669 42.7227 88.7417 35.8229 86.1066 29.1634C80.1479 14.1046 65.3237 2.00124 50.6583 0.221622C48.2819 -0.0669336 35.2284 -0.0765444 34.518 0.209433ZM44.8479 5.34131C45.3418 5.64721 46.0296 6.32488 46.3764 6.84714C47.0064 7.79532 47.0076 7.80517 47.1249 13.3634C47.2667 20.0757 47.1454 19.8092 50.4043 20.5668C59.4297 22.6652 66.8259 29.1308 69.7408 37.4708C71.1146 41.4016 71.9254 47.6558 71.7478 52.9501C71.5703 58.2339 71.0466 60.833 68.4877 69.1299C66.0461 77.0465 65.4324 80.5549 65.874 84.0733L66.087 85.7728H44.6365H23.1861L23.6345 83.7217C24.8161 78.3193 26.9972 73.8009 30.5649 69.3643C32.0033 67.5757 33.0408 66.5823 36.0728 64.0901C37.3015 63.0803 38.7698 61.8232 39.3355 61.2967C40.6867 60.0398 43.8126 56.151 44.8082 54.4883L45.5964 53.1724L46.8898 53.3571C50.2425 53.836 53.3364 53.3264 56.7024 51.7411C57.8403 51.2052 58.2993 50.8407 58.5827 50.2484C59.3046 48.7395 58.2005 47.044 56.5023 47.0529C56.0654 47.055 54.963 47.3752 54.0522 47.7641C50.5125 49.276 48.2562 49.2331 44.2662 47.578C41.4359 46.4041 39.6335 46.063 37.0642 46.2154C33.2261 46.4428 30.1122 47.9805 26.4478 51.4579C25.2102 52.6323 23.8299 53.7813 23.3801 54.0113C22.3268 54.5497 20.4301 54.5514 19.3717 54.0146C18.9218 53.7867 17.1006 52.1696 15.3243 50.4209C12.0507 47.1985 11.4125 46.2616 11.7434 45.1655C11.8316 44.8734 14.5278 41.9972 17.735 38.7741C23.5374 32.943 23.5668 32.9081 23.7055 31.7419C24.1699 27.8378 25.0447 25.7624 27.102 23.6811C29.272 21.4861 31.1887 20.5858 34.6577 20.1322C36.0357 19.9519 36.5455 19.7742 37.0092 19.3122L37.6013 18.7222L37.67 11.6724L37.7389 4.62238L40.8445 4.70372C43.6238 4.77639 44.0447 4.84366 44.8479 5.34131ZM53.5916 5.51173C62.1957 7.55084 70.9723 13.848 77.138 22.4066C78.8628 24.8006 81.6489 30.2145 82.5213 32.8673C84.7183 39.5474 85.8632 49.3895 85.2262 56.1203C84.8053 60.5677 84.2454 63.4373 82.6078 69.5401L82.3404 70.5363H77.6891H73.0381L73.7334 68.2508C74.801 64.742 75.7468 60.6143 76.1517 57.6945C77.047 51.243 76.2618 42.327 74.2585 36.1956C71.3213 27.2042 63.1606 19.4208 53.7117 16.5985L51.8303 16.0366L51.8291 12.1614C51.8279 8.50511 51.7381 7.7768 50.9957 5.41749C50.8053 4.81179 50.607 4.80452 53.5916 5.51173ZM31.9313 32.0888C31.1911 32.387 30.4292 33.4735 30.4292 34.2311C30.4292 34.6375 30.6975 35.1987 31.1147 35.6645L31.8004 36.43L34.9711 36.5065L38.1419 36.5826L38.9245 35.8858C39.5761 35.3054 39.7071 35.0241 39.7071 34.2032C39.7071 33.3874 39.5754 33.1005 38.9442 32.5384C38.1887 31.8652 38.1558 31.8593 35.3048 31.8739C33.7225 31.8821 32.2046 31.9789 31.9313 32.0888ZM71.9867 91.2274L72.6388 91.877L72.7112 96.5529L72.7837 101.229L62.8742 101.295L52.9647 101.361L52.2787 102.126C51.3797 103.13 51.3797 104.046 52.2787 105.049L52.9644 105.815L64.0951 105.936L75.2255 106.057L76.8151 106.688C80.2967 108.07 82.6673 110.478 83.813 113.797C84.0693 114.54 84.2788 115.183 84.2788 115.228C84.2788 115.272 66.3885 115.308 44.5225 115.308H4.76597L4.9294 114.781C5.51328 112.896 6.10892 111.718 7.09514 110.498C8.55261 108.695 10.146 107.511 12.1986 106.706L13.851 106.058L24.957 105.937L36.0629 105.815L36.7091 105.17C37.6709 104.211 37.6218 102.839 36.5927 101.923L35.8301 101.244H26.0615H16.2926L16.3653 96.5794C16.4316 92.3027 16.4767 91.8721 16.908 91.3948C17.1667 91.1086 17.5899 90.7875 17.8486 90.681C18.1073 90.5746 30.2474 90.5078 44.8268 90.5329L71.3349 90.5781L71.9867 91.2274ZM43.6889 101.473C42.9486 101.772 42.1867 102.858 42.1867 103.616C42.1867 104.554 43.2675 105.68 44.3297 105.848C45.0457 105.962 45.3034 105.872 45.9703 105.278C46.6309 104.69 46.7616 104.411 46.7616 103.588C46.7616 102.772 46.6299 102.485 45.9988 101.923C45.2263 101.235 44.5893 101.111 43.6889 101.473Z"></path>
</svg>