<svg width="120" height="120" viewBox="0 0 120 120" fill="#171717" xmlns="http://www.w3.org/2000/svg">
<path fill-rule="evenodd" clip-rule="evenodd" d="M10.5596 0.380297C9.42559 0.993973 9.38253 1.40215 9.45736 10.8236C9.52536 19.3942 9.53925 19.6189 10.0605 20.6722C10.693 21.9506 12.0293 23.3445 13.1744 23.921C13.6273 24.1487 16.0492 25.0084 18.556 25.8311C21.063 26.6536 23.161 27.4467 23.2187 27.5934C23.3135 27.8362 19.1155 72.9572 18.9925 73.017C18.9633 73.031 18.307 73.1683 17.534 73.3221C12.7727 74.2687 10.4396 79.183 12.6894 83.5266C13.0823 84.2853 13.3306 85.0255 13.2414 85.1717C13.152 85.3179 11.3563 87.7304 9.25075 90.5329C6.19522 94.5999 5.34433 95.8966 5.03418 96.959C4.56991 98.5491 4.69063 100.277 5.37327 101.813L5.84554 102.877L5.05301 103.365C2.9719 104.645 0.822559 107.879 0.256868 110.579C-0.0963368 112.266 -0.0815129 117.931 0.278045 118.717C0.899741 120.076 -1.47903 119.999 40 119.999C81.479 119.999 79.1003 120.076 79.722 118.717C80.0815 117.931 80.0963 112.266 79.7431 110.579C79.1774 107.879 77.0281 104.645 74.947 103.365L74.1545 102.877L74.6267 101.813C75.3094 100.277 75.4301 98.5491 74.9658 96.959C74.6557 95.8966 73.8048 94.5999 70.7493 90.5329C68.6437 87.7304 66.848 85.3179 66.7586 85.1717C66.6694 85.0255 66.9177 84.2853 67.3106 83.5266C69.5605 79.183 67.2273 74.2687 62.466 73.3221C61.693 73.1683 61.0367 73.031 61.0075 73.017C60.8845 72.9572 56.6865 27.8362 56.7813 27.5934C56.839 27.4467 58.937 26.6536 61.444 25.8311C66.976 24.0156 67.4128 23.8045 68.7912 22.2779C70.5389 20.3422 70.5907 19.9973 70.5907 10.3074C70.5907 1.29132 70.5511 0.965621 69.38 0.362723C68.4408 -0.120908 58.6217 -0.120908 57.6826 0.362723C56.6274 0.906104 56.4719 1.5868 56.4719 5.66345V9.40151H54.1188H51.7656V5.64072C51.7656 1.53173 51.5925 0.814252 50.478 0.30883C49.501 -0.134498 30.315 -0.0852915 29.4451 0.362723C28.3899 0.906104 28.2344 1.5868 28.2344 5.66345V9.40151H25.8812H23.5281V5.66345C23.5281 1.5868 23.3726 0.906104 22.3174 0.362723C21.3821 -0.119033 11.4547 -0.104271 10.5596 0.380297ZM18.8219 8.45323C18.8219 12.5299 18.9774 13.2106 20.0325 13.7539C20.9717 14.2376 30.7908 14.2376 31.7299 13.7539C32.7851 13.2106 32.9406 12.5299 32.9406 8.45323V4.71516H40H47.0594V8.47595C47.0594 12.5849 47.2326 13.3024 48.347 13.8078C49.2984 14.2395 59.113 14.194 59.9675 13.7539C61.0226 13.2106 61.1781 12.5299 61.1781 8.45323V4.71516H63.5313H65.8844V11.6456V18.576L65.2349 19.2227C64.7394 19.7161 63.3047 20.2944 59.1756 21.665L53.7656 23.4605H40H26.2344L20.8244 21.665C16.6953 20.2944 15.2606 19.7161 14.7651 19.2227L14.1156 18.576V11.6456V4.71516H16.4687H18.8219V8.45323ZM52.0009 28.2886C52.0009 28.5612 55.9869 70.6869 56.1281 71.9056L56.2705 73.1358H40H23.7295L23.8719 71.9056C24.0131 70.6869 27.9991 28.5612 27.9991 28.2886C27.9991 28.2106 33.3995 28.1469 40 28.1469C46.6005 28.1469 52.0009 28.2106 52.0009 28.2886ZM62.3206 78.156C63.4035 78.7137 63.8002 80.024 63.2501 81.2263C62.6408 82.5579 63.5364 82.5085 40.0228 82.5085C23.739 82.5085 18.2204 82.4391 17.7564 82.2284C16.1459 81.4978 16.0941 79.0195 17.6712 78.1492C18.5388 77.6703 61.3902 77.6768 62.3206 78.156ZM66.1945 92.2931C68.3109 95.0969 70.1657 97.6207 70.3165 97.9012C70.6662 98.5519 70.6641 99.1968 70.3095 99.9716C69.6932 101.319 71.2236 101.254 40.0228 101.254C18.2658 101.254 11.1646 101.186 10.697 100.974C9.60678 100.479 9.1091 98.9702 9.68349 97.9012C9.83433 97.6207 11.6891 95.0969 13.8055 92.2931L17.6535 87.1948H40H62.3465L66.1945 92.2931ZM24.7306 92.2082C22.6906 93.3341 23.5441 96.5675 25.8812 96.5675C27.0736 96.5675 28.2344 95.4228 28.2344 94.247C28.2344 92.4878 26.282 91.3518 24.7306 92.2082ZM34.1431 92.2082C32.566 93.0785 32.6178 95.5569 34.2283 96.2875C34.6754 96.4904 37.5622 96.5675 44.7063 96.5675C55.3024 96.5675 55.5226 96.5443 56.1366 95.3619C56.7665 94.1489 56.3298 92.6809 55.1843 92.1612C54.2508 91.7375 34.9173 91.7809 34.1431 92.2082ZM71.3394 106.711C73.8839 107.955 75.0847 109.967 75.251 113.263L75.3546 115.313H40.0287H4.7031V113.715C4.7031 109.989 6.36511 107.452 9.52207 106.361C10.6247 105.979 12.6814 105.955 40.353 106.005L70.0024 106.057L71.3394 106.711Z"></path>
</svg>