<svg width="122" height="50" viewBox="0 0 122 50" fill="none" xmlns="http://www.w3.org/2000/svg">
<path d="M56.984 5.896C57.832 5.896 58.592 6.024 59.264 6.28C59.952 6.52 60.6 6.904 61.208 7.432L59.72 9.448C59.304 9.128 58.896 8.896 58.496 8.752C58.112 8.608 57.688 8.536 57.224 8.536C55.416 8.536 54.512 9.928 54.512 12.712C54.512 14.12 54.744 15.128 55.208 15.736C55.672 16.344 56.336 16.648 57.2 16.648C57.648 16.648 58.056 16.584 58.424 16.456C58.792 16.312 59.224 16.08 59.72 15.76L61.208 17.896C59.992 18.888 58.6 19.384 57.032 19.384C55.784 19.384 54.696 19.112 53.768 18.568C52.856 18.024 52.152 17.256 51.656 16.264C51.16 15.256 50.912 14.08 50.912 12.736C50.912 11.392 51.16 10.208 51.656 9.184C52.152 8.144 52.856 7.336 53.768 6.76C54.696 6.184 55.768 5.896 56.984 5.896ZM70.2449 5.896C71.3489 5.896 72.2129 6.24 72.8369 6.928C73.4769 7.6 73.7969 8.536 73.7969 9.736V19H70.3889V10.312C70.3889 9.624 70.2689 9.144 70.0289 8.872C69.7889 8.584 69.4449 8.44 68.9969 8.44C68.1009 8.44 67.2849 9.024 66.5489 10.192V19H63.1409V1.216L66.5489 0.855999V7.72C67.0609 7.112 67.6129 6.656 68.2049 6.352C68.8129 6.048 69.4929 5.896 70.2449 5.896ZM87.7914 12.352C87.7914 12.512 87.7674 12.952 87.7194 13.672H79.7754C79.8874 14.824 80.1994 15.64 80.7114 16.12C81.2234 16.6 81.9194 16.84 82.7994 16.84C83.3434 16.84 83.8554 16.752 84.3354 16.576C84.8154 16.4 85.3354 16.12 85.8954 15.736L87.3114 17.656C85.8874 18.808 84.2794 19.384 82.4874 19.384C80.4874 19.384 78.9514 18.784 77.8794 17.584C76.8074 16.384 76.2714 14.76 76.2714 12.712C76.2714 11.416 76.4954 10.256 76.9434 9.232C77.4074 8.192 78.0714 7.376 78.9354 6.784C79.8154 6.192 80.8554 5.896 82.0554 5.896C83.8634 5.896 85.2714 6.464 86.2794 7.6C87.2874 8.736 87.7914 10.32 87.7914 12.352ZM84.4074 11.392C84.4074 9.28 83.6474 8.224 82.1274 8.224C81.4234 8.224 80.8714 8.488 80.4714 9.016C80.0874 9.528 79.8554 10.368 79.7754 11.536H84.4074V11.392ZM95.5621 5.896C96.4101 5.896 97.1701 6.024 97.8421 6.28C98.5301 6.52 99.1781 6.904 99.7861 7.432L98.2981 9.448C97.8821 9.128 97.4741 8.896 97.0741 8.752C96.6901 8.608 96.2661 8.536 95.8021 8.536C93.9941 8.536 93.0901 9.928 93.0901 12.712C93.0901 14.12 93.3221 15.128 93.7861 15.736C94.2501 16.344 94.9141 16.648 95.7781 16.648C96.2261 16.648 96.6341 16.584 97.0021 16.456C97.3701 16.312 97.8021 16.08 98.2981 15.76L99.7861 17.896C98.5701 18.888 97.1781 19.384 95.6101 19.384C94.3621 19.384 93.2741 19.112 92.3461 18.568C91.4341 18.024 90.7301 17.256 90.2341 16.264C89.7381 15.256 89.4901 14.08 89.4901 12.736C89.4901 11.392 89.7381 10.208 90.2341 9.184C90.7301 8.144 91.4341 7.336 92.3461 6.76C93.2741 6.184 94.3461 5.896 95.5621 5.896ZM105.127 0.831999V19H101.719V1.216L105.127 0.831999ZM112.855 6.28L108.799 11.872L113.215 19H109.351L105.247 12.04L109.327 6.28H112.855ZM72.32 46H68L67.55 37.57C67.41 35.05 67.34 32.91 67.34 31.15C67.34 30.21 67.35 29.53 67.37 29.11L63.86 43.78H59.69L55.94 29.08C56.02 30.3 56.06 31.67 56.06 33.19C56.06 34.81 56.02 36.3 55.94 37.66L55.49 46H51.2L52.82 25.24H58.43L61.85 39.55L65.06 25.24H70.73L72.32 46ZM86.6954 46L85.5254 41.35H79.0154L77.8454 46H73.2554L79.6454 25.24H85.0154L91.3754 46H86.6954ZM79.8554 38.08H84.6854L82.2554 28.51L79.8554 38.08ZM105.569 25.24L105.089 28.69H99.8394V46H95.4294V28.69H89.9094V25.24H105.569ZM120.215 25.24L119.735 28.45H112.235V33.85H118.775V37.03H112.235V42.76H120.275V46H107.825V25.24H120.215Z" fill="white"/>
<rect y="6" width="20" height="20" fill="white"/>
<rect x="20" y="26" width="20" height="20" fill="white"/>
</svg>
